# xmcd CD database file
#
# Track frame offsets:
#	150
#	13477
#	27307
#	39302
#	51842
#	62850
#	75287
#	86547
#	99567
#	112737
#	124690
#	138585
#	150980
#	165465
#	178640
#	191382
#	206370
#	217035
#	229247
#	241665
#
# Disc length: 3415 seconds
#
# Revision: 0
# Processed by: cddbd v1.4PL0 Copyright (c) Steve Scherf et al.
# Submitted via: CDex 1.51
#
DISCID=fc0d5514
DTITLE=Django Reinhardt - Masters of Jazz - Django Reinhardt [CD 1)
DYEAR=1999
DGENRE=Jazz
TTITLE0=Djangology
TTITLE1=It don't mean a thing
TTITLE2=Oriental shuffle
TTITLE3=Limehouse blues
TTITLE4=Swing guitars
TTITLE5=Sweet chorus
TTITLE6=Exactly like you
TTITLE7=Charleston
TTITLE8=You're driving me crazy
TTITLE9=Tears
TTITLE10=Hot Lips
TTITLE11=Rose room
TTITLE12=When day is done
TTITLE13=Runnin' wild
TTITLE14=Miss Annabelle Lee
TTITLE15=A little love, a little kiss
TTITLE16=Mystery pacific
TTITLE17=St. Louis Blues
TTITLE18=Bouncin' around
TTITLE19=Minor swing
EXTD=YEAR: 1999
EXTT0=
EXTT1=
EXTT2=
EXTT3=
EXTT4=
EXTT5=
EXTT6=
EXTT7=
EXTT8=
EXTT9=
EXTT10=
EXTT11=
EXTT12=
EXTT13=
EXTT14=
EXTT15=
EXTT16=
EXTT17=
EXTT18=
EXTT19=
PLAYORDER=
